<svg xmlns="http://www.w3.org/2000/svg" version="1.1" xmlns:xlink="http://www.w3.org/1999/xlink" xmlns:svgjs="http://svgjs.dev/svgjs" width="99" height="101"><svg version="1.1" xmlns="http://www.w3.org/2000/svg" width="99" height="101">
<path d="M0 0 C3 1 3 1 4.62573242 3.87988281 C5.21379844 5.14903711 5.78957978 6.42392839 6.35546875 7.703125 C6.66196854 8.37792908 6.96846832 9.05273315 7.28425598 9.74798584 C7.9305927 11.17813646 8.57162767 12.61069313 9.20776367 14.04541016 C10.18034531 16.23390061 11.17370753 18.412027 12.16992188 20.58984375 C12.79554642 21.98119796 13.41993602 23.37310827 14.04296875 24.765625 C14.3397905 25.41476868 14.63661224 26.06391235 14.94242859 26.73272705 C16.50459279 30.29476722 17.35176138 33.10227944 17 37 C17.33 37 17.66 37 18 37 C18.495 49.375 18.495 49.375 19 62 C20.98 62.99 22.96 63.98 25 65 C25 65.66 25 66.32 25 67 C19.06 67 13.12 67 7 67 C7 66.34 7 65.68 7 65 C9.97 64.505 9.97 64.505 13 64 C13 57.4 13 50.8 13 44 C10.4940625 47.8671875 10.4940625 47.8671875 7.9375 51.8125 C7.3914209 52.65498291 6.8453418 53.49746582 6.28271484 54.36547852 C2.99023475 59.45169248 -0.26244214 64.55962574 -3.46484375 69.703125 C-8.0098131 76.50323181 -13.30372655 81.55499279 -21.25 84 C-24.38040488 84 -26.26680841 83.51843977 -29 82 C-31 79 -31 79 -30.8125 75.9375 C-30 73 -30 73 -27 71 C-24.3125 71.375 -24.3125 71.375 -22 72 C-22 74.31 -22 76.62 -22 79 C-21.34 79.33 -20.68 79.66 -20 80 C-12.00368245 77.31284644 -8.28585641 71.85737026 -4 65 C-3.04475356 63.59076495 -2.08474984 62.18474782 -1.12109375 60.78125 C-0.10072255 59.27140064 0.91880603 57.76098149 1.9375 56.25 C2.43491699 55.5290918 2.93233398 54.80818359 3.44482422 54.06542969 C6.18846264 49.91107904 7.79271613 47.13511691 7 42 C6.34 40.02 5.68 38.04 5 36 C-0.61 36 -6.22 36 -12 36 C-12.33 39.3 -12.66 42.6 -13 46 C-11.35 46.66 -9.7 47.32 -8 48 C-8 48.66 -8 49.32 -8 50 C-13.61 50 -19.22 50 -25 50 C-24 47 -24 47 -21.6796875 44.8359375 C-18.40419219 41.36945121 -16.92232865 37.98709253 -15.125 33.625 C-14.43618527 32.01377106 -13.74605887 30.4031023 -13.0546875 28.79296875 C-12.54180176 27.58713135 -12.54180176 27.58713135 -12.01855469 26.35693359 C-10.50250055 22.84878723 -8.88293679 19.39242237 -7.25 15.9375 C-4.7646311 10.65391369 -2.34532962 5.34735154 0 0 Z M-4 18 C-4.84026396 19.76755526 -5.67198722 21.53917263 -6.5 23.3125 C-6.9640625 24.29863281 -7.428125 25.28476562 -7.90625 26.30078125 C-9.18777472 28.97800126 -9.18777472 28.97800126 -9 32 C-5.04 32 -1.08 32 3 32 C2.401875 30.4325 1.80375 28.865 1.1875 27.25 C0.85105469 26.36828125 0.51460937 25.4865625 0.16796875 24.578125 C-0.96846822 22.06960192 -2.26542927 20.12720995 -4 18 Z " fill="#151515" transform="translate(31,17)"></path>
<path d="M0 0 C2 3 2 3 1.8125 6.0625 C1 9 1 9 -2 11 C-4.6875 10.625 -4.6875 10.625 -7 10 C-7.125 4.25 -7.125 4.25 -6 2 C-11.41088886 2.3959187 -15.17670511 4.2335269 -19 8 C-21.50085104 11.25789364 -23.68971353 14.66878508 -25.84521484 18.16259766 C-27.12640224 20.2011212 -28.46031819 22.19921329 -29.80078125 24.19921875 C-30.74295245 25.63230988 -31.68436702 27.06589876 -32.625 28.5 C-33.08753174 29.18231689 -33.55006348 29.86463379 -34.02661133 30.56762695 C-35.46556272 32.72454478 -35.46556272 32.72454478 -37 36 C-35.92037742 39.01566404 -34.09151364 41.29693702 -32.06640625 43.75 C-31.49986328 44.4409375 -30.93332031 45.131875 -30.34960938 45.84375 C-29.75986328 46.5553125 -29.17011719 47.266875 -28.5625 48 C-27.39649425 49.41613899 -26.23110978 50.8327898 -25.06640625 52.25 C-24.55021729 52.87390625 -24.03402832 53.4978125 -23.50219727 54.140625 C-21.95428994 56.05657855 -20.47786408 58.02951457 -19 60 C-19 52.74 -19 45.48 -19 38 C-20.98 37.01 -22.96 36.02 -25 35 C-25 34.34 -25 33.68 -25 33 C-19.39 33 -13.78 33 -8 33 C-8.33 33.99 -8.66 34.98 -9 36 C-10.98 36.495 -10.98 36.495 -13 37 C-13.33 52.18 -13.66 67.36 -14 83 C-18.86540249 81.78364938 -20.23985991 79.58286415 -23.0625 75.75 C-24.03422308 74.46965463 -25.00824285 73.19104959 -25.984375 71.9140625 C-26.48130859 71.26211914 -26.97824219 70.61017578 -27.49023438 69.93847656 C-29.83970135 66.92185822 -32.32164476 64.02498122 -34.8125 61.125 C-35.71954711 60.05536294 -36.62582532 58.98507326 -37.53125 57.9140625 C-39.04267481 56.13000727 -40.56172759 54.35233648 -42.09375 52.5859375 C-42.6609375 51.89757813 -43.228125 51.20921875 -43.8125 50.5 C-44.29332031 49.9328125 -44.77414063 49.365625 -45.26953125 48.78125 C-46 47 -46 47 -45.22949219 44.70507812 C-43.99319344 41.98502449 -42.60860419 39.49108142 -41.05859375 36.9375 C-40.47891846 35.98117676 -39.89924316 35.02485352 -39.30200195 34.03955078 C-38.68671631 33.03649902 -38.07143066 32.03344727 -37.4375 31 C-36.80996826 29.97503418 -36.18243652 28.95006836 -35.53588867 27.89404297 C-22.31995926 6.43998642 -22.31995926 6.43998642 -18 5 C-18 4.34 -18 3.68 -18 3 C-11.52433862 -0.93618633 -7.42480018 -3.29991119 0 0 Z " fill="#141414" transform="translate(97,2)"></path>
<path d="M0 0 C2 3 2 3 1.8125 6.0625 C1 9 1 9 -2 11 C-4.6875 10.625 -4.6875 10.625 -7 10 C-7.125 4.25 -7.125 4.25 -6 2 C-11.41353289 2.39611216 -15.17161301 4.23677704 -19 8 C-21.95932124 11.81563547 -24.48207463 15.88622094 -27 20 C-27.47115234 20.76328613 -27.94230469 21.52657227 -28.42773438 22.31298828 C-31.6445007 27.52633268 -34.83333499 32.75608682 -38 38 C-38.66 37.67 -39.32 37.34 -40 37 C-36.6775626 27.91755806 -30.58977371 19.73121495 -25.1875 11.75 C-24.45917969 10.67234375 -23.73085937 9.5946875 -22.98046875 8.484375 C-21 6 -21 6 -18 5 C-18 4.34 -18 3.68 -18 3 C-11.52433862 -0.93618633 -7.42480018 -3.29991119 0 0 Z " fill="#5B5B5B" transform="translate(97,2)"></path>
<path d="M0 0 C1.09570312 1.76831055 1.09570312 1.76831055 2 4 C1.51367188 5.83520508 1.51367188 5.83520508 0.46875 7.70703125 C-0.10746094 8.75044678 -0.10746094 8.75044678 -0.6953125 9.81494141 C-2.88993044 13.49043365 -5.15203193 17.1079683 -7.5 20.6875 C-7.97308594 21.42033203 -8.44617188 22.15316406 -8.93359375 22.90820312 C-14.25771453 31.08611164 -19.55267592 38.01620798 -29.25 41 C-32.38040488 41 -34.26680841 40.51843977 -37 39 C-39 36 -39 36 -38.8125 32.9375 C-38 30 -38 30 -35 28 C-32.3125 28.375 -32.3125 28.375 -30 29 C-30 31.31 -30 33.62 -30 36 C-29.34 36.33 -28.68 36.66 -28 37 C-20.01044244 34.31511813 -16.27405979 28.86054439 -12 22 C-11.05592694 20.57946931 -10.10768846 19.16170183 -9.15625 17.74609375 C-8.14500825 16.22711146 -7.13459422 14.70757782 -6.125 13.1875 C-5.39144287 12.09356934 -5.39144287 12.09356934 -4.64306641 10.97753906 C-2.28047803 7.35829018 -0.39902758 4.41532687 0 0 Z " fill="#6B6B6B" transform="translate(39,60)"></path>
<path d="M0 0 C0.33 8.25 0.66 16.5 1 25 C2.98 25.99 4.96 26.98 7 28 C7 28.66 7 29.32 7 30 C1.06 30 -4.88 30 -11 30 C-11 29.34 -11 28.68 -11 28 C-9.02 27.67 -7.04 27.34 -5 27 C-4.98541748 26.25314941 -4.97083496 25.50629883 -4.95581055 24.73681641 C-4.88152054 21.36567748 -4.78479801 17.99554995 -4.6875 14.625 C-4.65366211 12.8615625 -4.65366211 12.8615625 -4.61914062 11.0625 C-4.58369141 9.94101562 -4.54824219 8.81953125 -4.51171875 7.6640625 C-4.48553467 6.62717285 -4.45935059 5.5902832 -4.43237305 4.52197266 C-4.28968994 3.68972168 -4.14700684 2.8574707 -4 2 C-1 0 -1 0 0 0 Z " fill="#262626" transform="translate(49,54)"></path>
<path d="M0 0 C5.61 0 11.22 0 17 0 C16.67 0.99 16.34 1.98 16 3 C14.68 3.33 13.36 3.66 12 4 C11.67 19.18 11.34 34.36 11 50 C10.67 50 10.34 50 10 50 C10 35.81 10 21.62 10 7 C9.34 7 8.68 7 8 7 C8 14.26 8 21.52 8 29 C7.01 29 6.02 29 5 29 C5.33 28.34 5.66 27.68 6 27 C6.08426094 25.3325394 6.10725143 23.66174813 6.09765625 21.9921875 C6.09443359 21.00605469 6.09121094 20.01992188 6.08789062 19.00390625 C6.07951172 17.97136719 6.07113281 16.93882813 6.0625 15.875 C6.05573242 14.31458984 6.05573242 14.31458984 6.04882812 12.72265625 C6.03701952 10.14838038 6.02055075 7.57421854 6 5 C4.02 4.01 2.04 3.02 0 2 C0 1.34 0 0.68 0 0 Z " fill="#7C7C7C" transform="translate(72,35)"></path>
<path d="M0 0 C6.6 0.33 13.2 0.66 20 1 C20 1.33 20 1.66 20 2 C14.39 2 8.78 2 3 2 C2.67 5.3 2.34 8.6 2 12 C4.475 12.99 4.475 12.99 7 14 C7 14.66 7 15.32 7 16 C1.39 16 -4.22 16 -10 16 C-9 13 -9 13 -6.6875 10.8125 C-3.26008035 7.50212973 -3.26008035 7.50212973 0 0 Z " fill="#414141" transform="translate(16,51)"></path>
<path d="M0 0 C0.763125 0.20625 1.52625 0.4125 2.3125 0.625 C2.3125 2.935 2.3125 5.245 2.3125 7.625 C3.6325 8.285 4.9525 8.945 6.3125 9.625 C6.3125 10.285 6.3125 10.945 6.3125 11.625 C1.9417047 12.64146402 -0.71037937 12.83451146 -4.6875 10.625 C-6.6875 7.625 -6.6875 7.625 -6.5 4.5625 C-5.41880569 0.65356673 -4.1113564 -0.57367764 0 0 Z " fill="#2A2A2A" transform="translate(6.6875,88.375)"></path>
<path d="M0 0 C2 3 2 3 1.8125 6.0625 C1 9 1 9 -2 11 C-4.6875 10.625 -4.6875 10.625 -7 10 C-7.125 4.25 -7.125 4.25 -6 2 C-7.65 1.67 -9.3 1.34 -11 1 C-11 0.34 -11 -0.32 -11 -1 C-6.71913541 -2.25907782 -4.06609565 -1.80715362 0 0 Z " fill="#2A2A2A" transform="translate(97,2)"></path>
<path d="M0 0 C2.475 0.99 2.475 0.99 5 2 C3.91608814 5.25173557 2.48333034 8.12872932 0.9375 11.1875 C0.38964844 12.27417969 -0.15820312 13.36085938 -0.72265625 14.48046875 C-1.35494141 15.72763672 -1.35494141 15.72763672 -2 17 C1.96 17 5.92 17 10 17 C10 17.33 10 17.66 10 18 C4.39 18 -1.22 18 -7 18 C-5.02989474 11.79416842 -2.74844552 5.90148454 0 0 Z " fill="#5E5E5E" transform="translate(24,32)"></path>
<path d="M0 0 C0 7.92 0 15.84 0 24 C-0.33 24 -0.66 24 -1 24 C-1.33 17.73 -1.66 11.46 -2 5 C-2.33 11.27 -2.66 17.54 -3 24 C-3.33 24 -3.66 24 -4 24 C-4.08681476 20.37515001 -4.14032721 16.75056557 -4.1875 13.125 C-4.21263672 12.09246094 -4.23777344 11.05992188 -4.26367188 9.99609375 C-4.27333984 9.00996094 -4.28300781 8.02382813 -4.29296875 7.0078125 C-4.31653442 5.64100342 -4.31653442 5.64100342 -4.34057617 4.24658203 C-4.22818604 3.50520996 -4.1157959 2.76383789 -4 2 C-1 0 -1 0 0 0 Z " fill="#A1A1A1" transform="translate(49,54)"></path>
<path d="M0 0 C0.66 0 1.32 0 2 0 C0.62394084 4.76551013 -1.46778066 8.7248553 -4.125 12.875 C-4.49753906 13.46796875 -4.87007812 14.0609375 -5.25390625 14.671875 C-6.16365 16.1181343 -7.08103798 17.55958046 -8 19 C-8.66 18.67 -9.32 18.34 -10 18 C-8.46885867 13.76543725 -6.35110294 10.00804228 -4 6.1875 C-3.64421875 5.59001953 -3.2884375 4.99253906 -2.921875 4.37695312 C-2.00555558 2.88109586 -1.00864753 1.43522138 0 0 Z " fill="#656564" transform="translate(67,21)"></path>
<path d="M0 0 C1.09765625 1.765625 1.09765625 1.765625 2 4 C1.49609375 5.859375 1.49609375 5.859375 0.4375 7.75 C0.05722656 8.43578125 -0.32304688 9.1215625 -0.71484375 9.828125 C-1.13894531 10.54484375 -1.56304687 11.2615625 -2 12 C-2.43441406 12.75796875 -2.86882813 13.5159375 -3.31640625 14.296875 C-5.76811521 18.4245283 -5.76811521 18.4245283 -7 20 C-7.66 20 -8.32 20 -9 20 C-7.71060342 14.97135333 -5.35372359 11.38004629 -2.33984375 7.24609375 C-0.88541345 4.80790884 -0.39767796 2.79356494 0 0 Z " fill="#696969" transform="translate(39,60)"></path>
<path d="M0 0 C2.475 0.99 2.475 0.99 5 2 C3.87172132 5.38483604 2.36214538 7.35153397 0 10 C-0.66 10 -1.32 10 -2 10 C-2.99 10.495 -2.99 10.495 -4 11 C-2.7874262 7.27566618 -1.49140021 3.62197194 0 0 Z " fill="#464646" transform="translate(24,32)"></path>
<path d="M0 0 C6.6 0.33 13.2 0.66 20 1 C20 1.33 20 1.66 20 2 C14.39 2 8.78 2 3 2 C2.67 2.66 2.34 3.32 2 4 C1.01 3.67 0.02 3.34 -1 3 C-0.67 2.01 -0.34 1.02 0 0 Z " fill="#5F5F5F" transform="translate(16,51)"></path>
<path d="M0 0 C-0.33 3.3 -0.66 6.6 -1 10 C-1.66 8.68 -2.32 7.36 -3 6 C-3.66 6 -4.32 6 -5 6 C-2.84615385 0 -2.84615385 0 0 0 Z " fill="#484848" transform="translate(18,53)"></path>
<path d="M0 0 C0.66 0.33 1.32 0.66 2 1 C0.8141763 4.37503669 -0.27573689 6.64722731 -3 9 C-3 4.72290301 -2.29379749 3.44069624 0 0 Z " fill="#777777" transform="translate(29,79)"></path>
<path d="M0 0 C0.66 0.99 1.32 1.98 2 3 C0.02 5.97 0.02 5.97 -2 9 C-2.66 8.67 -3.32 8.34 -4 8 C-2.87548273 5.0280615 -1.77706209 2.66559313 0 0 Z " fill="#7C7C7C" transform="translate(72,13)"></path>
<path d="M0 0 C2.3125 0.8125 2.3125 0.8125 4 2 C0.535 3.485 0.535 3.485 -3 5 C-3.66 4.34 -4.32 3.68 -5 3 C-2.75 1.375 -2.75 1.375 0 0 Z " fill="#7B7B7B" transform="translate(84,2)"></path>
<path d="M0 0 C2.475 0.99 2.475 0.99 5 2 C4 5 4 5 2 6 C1.67 5.34 1.34 4.68 1 4 C0.01 4.495 0.01 4.495 -1 5 C-0.67 3.35 -0.34 1.7 0 0 Z " fill="#6C6C6C" transform="translate(24,32)"></path>
<path d="" fill="#FEFEFE" transform="translate(0,0)"></path>
</svg><style>@media (prefers-color-scheme: light) { :root { filter: none; } }
@media (prefers-color-scheme: dark) { :root { filter: contrast(0.3846153846153846) brightness(4.5); } }
</style></svg>